<?xml version="1.0" encoding="UTF-8"?>
<svg xmlns="http://www.w3.org/2000/svg" viewBox="0 0 447 447" width="447" height="447">
<path d="M398.75 211.66C399.91 213.35 402.55 213.5 404.38 214.23C409.16 216.13 413.93 218.71 418.03 221.85C427.95 229.46 434.54 241.05 438.79 252.54C443.83 266.18 445.1 281.59 445.07 296.16C445.06 307.34 443.26 317.95 440.27 328.6C438.3 335.6 435.43 342.54 431.26 348.58C402.09 390.81 356 384.3 310.45 384.3C298.88 384.3 287.32 384.3 275.75 384.3C267.45 384.3 259.15 384.3 250.85 384.3C247.71 384.3 243.89 383.7 240.82 384.35C237.99 384.95 234.84 389.05 232.8 390.97C227.47 395.97 221.44 400.45 215.61 404.8C189.98 423.96 147.63 445.31 116.84 425.89C107.54 420.03 101.92 410.11 97.86 400.34C89.19 379.48 89.37 354.37 92.2 332.09C93.14 324.65 94.38 316.56 96.06 309.29C96.38 307.91 96.98 307.07 96.95 305.52C93.76 303.81 89.94 303.02 86.47 301.88C79.14 299.46 71.47 296.23 64.51 292.87C35.39 278.77 -6.73 249.91 3.22 211.68C4.39 207.2 6.53 202.84 8.75 198.8C12.98 191.13 19.4 183.85 26.18 178.27C40.18 166.74 55.91 158.17 72.55 151.17C77.76 148.97 83.27 147.05 88.55 145.14C91.26 144.16 94.61 144.02 96.95 142.29C97.53 139.33 95.94 135.26 95.22 132.42C93.68 126.31 92.99 119.52 92.06 113.29C87.84 84.86 90.65 37.42 117.61 20.28C147.69 1.15 189.28 24.43 214.41 42.17C221.27 47.02 227.27 53.07 234.02 58.07C235.87 59.45 237.59 62.27 239.77 63.02C243.21 64.21 248.45 63.34 252.08 63.3C259.69 63.21 267.32 63.28 274.94 63.28C295.07 63.28 315.21 63.29 335.35 63.28C349.97 63.28 365.48 62.07 379.84 65.27C399.52 69.66 416.9 81.71 425.83 100.22C430.51 109.93 432 120.06 433.31 130.71C434.56 140.82 434.44 160.21 430.82 169.77C426.63 180.84 422.12 190.9 413.78 199.68C410.89 202.72 407.45 205.49 404.05 207.9C402.27 209.16 400.04 209.81 398.75 211.66ZM215.31 83.89C212.97 79.41 204.3 73.89 200.13 70.71C187.45 61.06 174.19 52.63 159.15 47.58C151.57 45.03 142.77 43.04 135.11 46.35C128.63 49.15 126.61 58.3 124.76 64.2C120.61 77.44 121.04 104.89 124.76 118.27C125.98 122.66 125.44 131.23 128.38 134.67C138.17 132.46 148.69 130.26 158.59 128.97C162.88 128.41 178.47 127.85 181.35 126.42C183.91 125.16 188.28 117.41 190.18 114.86C196.08 106.93 202.33 98.52 209.1 91.33C211.1 89.2 214.39 86.69 215.31 83.89ZM238.6 104.99C232.35 111.1 227.51 118.69 221.89 125.35C205.75 144.43 192.17 165.46 179.87 187.06C175.34 195.02 171.02 202.97 166.7 211.02C165.32 213.6 160.53 220.87 160.56 223.5C160.59 225.24 162.14 226.96 162.91 228.4C165.59 233.45 168.26 238.58 170.87 243.61C179.49 260.24 189.49 275.8 199.82 291.46C208.74 304.98 218.44 317.71 228.87 330.17C231.1 332.85 235.91 340.71 238.75 341.88C240.25 338.6 239.25 329.49 239.18 325.55C238.98 314.14 239.12 302.68 239.19 291.26C239.46 248 238.74 204.72 239.18 161.45C239.31 147.71 239.08 133.96 239.18 120.22C239.2 117.32 240.05 106.87 238.6 104.99ZM282.82 197.39C286.18 198.76 290.92 197.92 294.53 197.93C302.97 197.94 311.4 197.93 319.84 197.94C343.86 197.95 372.66 203.26 385.76 178.17C387.71 174.44 388.96 170.03 389.82 165.94C391.14 159.62 391.02 152.77 390.72 146.35C390.48 140.99 389.05 136.11 388.03 130.97C382.6 103.49 345.45 109.06 325.15 109.06C315.62 109.06 306.1 109.09 296.57 109.07C292.12 109.06 287.21 108.5 282.82 109.2C282.82 138.6 282.82 167.99 282.82 197.39ZM157.78 161.13C150.8 162.46 143.83 163.79 136.85 165.12C136.74 169.27 140.16 176.07 141.86 179.98C142.7 181.92 142.53 184.13 144.31 185.63C147.44 182.96 151.8 172.68 154.11 168.58C155.38 166.34 158.27 163.78 157.78 161.13ZM105.52 172.88C98.63 173.7 92.27 177.63 85.87 179.94C71.61 185.07 57.3 192.57 45.83 202.8C40.51 207.54 34.03 213.99 33.19 221.47C32.25 229.8 39.74 238.15 45.42 243.4C58.06 255.06 73.42 262.81 89.05 269.21C94.06 271.26 100.04 274.51 105.52 274.87C107.42 271.79 107.87 267.72 109.06 264.37C112.31 255.22 116.4 246.36 119.85 237.26C121.12 233.92 123.77 226.09 125.66 223.5C123.92 221.02 123.12 217.17 121.83 214.32C117.95 205.76 114.77 196.91 111.22 188.27C109.31 183.61 108.81 176.76 105.52 172.88ZM283.35 338.62C287.96 339.42 293.11 338.82 297.8 338.82C307.73 338.83 317.66 338.82 327.6 338.82C352.63 338.81 383.95 344.28 396.17 316.7C397.74 313.17 399.61 309.55 400.12 305.55C401.04 298.44 402.12 291.65 402.01 284.32C401.94 279.13 401.26 272.89 399.7 267.99C398.25 263.44 396.69 258.47 393.86 254.6C382.26 238.78 367.99 238.03 349.64 238.03C340.93 238.03 332.22 238.03 323.51 238.03C314.26 238.03 305.01 238.03 295.75 238.03C291.94 238.03 286.68 237.13 283.1 238.36C281.62 243.91 282.83 255.27 282.82 261.46C282.82 278.2 283.01 294.94 282.84 311.68C282.78 317.93 282.85 324.19 282.85 330.45C282.85 332.97 282.17 336.37 283.35 338.62ZM144.31 261.35C142.69 262.85 142.64 264.79 141.97 266.71C140.49 270.95 136.33 278.39 136.46 282.69C140.93 284.14 145.64 284.17 150.22 285.16C152.66 285.68 156.13 286.93 158.59 286.16C153.83 277.89 149.07 269.62 144.31 261.35ZM216.14 363.52C214.78 360.35 211.24 357.94 209.04 355.31C203.1 348.2 196.29 340.9 191.21 333.16C189.34 330.3 184.32 322.11 181.52 320.78C178.63 319.41 174.77 320.12 171.66 319.69C166.36 318.95 161.02 318.59 155.72 317.98C149.27 317.24 142.59 315.86 136.16 314.74C133.55 314.29 130.49 312.91 127.89 313.31C125.74 316.42 124.4 328.48 123.88 332.67C121.79 349.61 121.03 366.07 124.92 382.71C126.35 388.83 129.27 398.07 135.81 400.78C141.03 402.93 146.93 402.38 152.27 401.08C153.37 400.81 154.57 401.18 155.7 400.81C172.63 395.24 186.91 386.84 201.27 376.2C206.1 372.62 212.66 368.5 216.14 363.52Z" fill="#41e0fe" fill-rule="evenodd" stroke="#41e0fe" stroke-width="0.25" stroke-linejoin="round"/>
</svg>